<svg width="260" height="64" viewBox="0 0 260 64" fill="none" xmlns="http://www.w3.org/2000/svg">
<path d="M28.5341 27.6944C30.267 27.6944 33.9285 27.6944 36.8354 27.6944C37.7857 25.0338 38.0373 22.316 38.0373 21C38.0373 21 28.7018 21 25.5714 21C18.0528 21 14 28.9532 14 34.7035C14 34.7035 16.0124 34.7035 18.5559 34.7035C20.4006 30.9272 23.7546 27.6944 28.5341 27.6944Z" fill="white"/>
<path d="M40.9161 29.2678C40.5248 29.2678 38.5403 29.2678 36.1645 29.2678C33.3974 29.2678 30.1272 29.2678 28.534 29.2678C24.4253 29.2678 21.3509 31.6424 19.4223 34.7321C18.1086 36.7919 17.326 39.195 17.0745 41.4265C17.0186 41.97 16.9626 42.485 16.9626 43C16.9626 43 27.6955 43 30.9657 43C39.7141 43 40.9999 32.329 40.9999 29.2965C40.9999 29.2679 40.944 29.2678 40.9161 29.2678Z" fill="white"/>
<path d="M63.1838 30C65.938 27.6667 66.8744 24.0833 65.8278 20.7222C64.8914 17.6667 61.4212 15.7778 58.7496 15.7778H49V48.3333C49 48.3333 51.7542 48.3333 52.6906 48.3333C53.6821 48.3333 54.7286 48.3611 55.8303 48.3611C60.8979 48.3611 66.4613 47.5 68.1688 41.5278C69.4082 37.1389 67.7832 33 63.1838 30ZM54.9215 34.5555L58.7772 32.8055C61.7241 34.5278 63.4041 37.2223 62.3576 40.3334C61.9169 41.6667 60.2094 43 58.97 43H54.8939V34.5555H54.9215ZM59.5484 26.1111C58.3641 27.6111 56.6841 28.1944 54.9215 28.9167V20.9445C55.6651 20.9445 57.6756 20.9444 58.4192 21C59.2454 21.0833 59.8238 21.5001 60.1267 22.1945C60.5398 23.2223 60.292 25.1666 59.5484 26.1111Z" fill="white"/>
<path d="M77.9735 15.7501H71.6941V48.3333H77.9735V15.7501Z" fill="white"/>
<path d="M89.1827 36.2778H90.8077L96.8667 48.3333H103.339V47.3888L96.7841 34.0278C98.3539 33.2778 99.6209 32.2222 100.53 30.9167C101.576 29.4444 102.1 27.6389 102.1 25.5C102.1 22.3611 101.081 19.9167 99.0701 18.25C97.0871 16.6111 94.2778 15.7778 90.6699 15.7778H82.9033V48.3611H89.2102V36.2778H89.1827ZM95.7926 25.6944C95.7926 27.1111 95.3519 28.1666 94.4706 28.9722C93.5893 29.7777 92.3224 30.1944 90.6975 30.1944H89.2102V21.0833H90.8351C92.5152 21.1111 93.7821 21.5278 94.5808 22.3056C95.3795 23.1111 95.7926 24.2222 95.7926 25.6944Z" fill="white"/>
<path d="M123.169 38.1111C122.921 40.1389 122.315 41.5833 121.379 42.4444C120.442 43.2777 119.01 43.6944 117.11 43.6944C115.017 43.6944 113.502 42.9167 112.428 41.3333C111.326 39.6944 110.775 37.2778 110.775 34.1111V29.7222C110.803 26.6111 111.409 24.2222 112.538 22.6389C113.667 21.0833 115.237 20.3334 117.358 20.3334C119.175 20.3334 120.552 20.7778 121.461 21.6389C122.37 22.5 122.948 24 123.196 26.0278L123.251 26.5H129.531L129.476 25.9167C129.145 22.4723 127.878 19.75 125.758 17.8611C123.637 15.9722 120.828 15 117.358 15C114.796 15 112.51 15.6111 110.555 16.8611C108.599 18.0834 107.057 19.8611 106.011 22.1389C104.964 24.3889 104.441 27 104.441 29.9444V34.5C104.496 37.3611 105.019 39.9166 106.038 42.0833C107.085 44.2777 108.572 46 110.472 47.1945C112.373 48.3889 114.603 49 117.11 49C120.663 49 123.554 48.0278 125.73 46.1389C127.906 44.25 129.145 41.5555 129.476 38.1944L129.531 37.6111H123.251L123.169 38.1111Z" fill="white"/>
<path d="M152.72 15.7501V27.2223L138.977 28.6945V15.7501H132.67V48.3333H138.977V34.0278L152.72 32.4167V48.3333H159V15.7501H152.72Z" fill="white"/>
</svg>
