<svg width="48" height="48" viewBox="0 0 48 48" fill="none" xmlns="http://www.w3.org/2000/svg">
<rect width="48" height="48" rx="24" fill="black"/>
<circle cx="24" cy="24" r="24" fill="#5F6161"/>
<path d="M16.9395 16.9395C17.5252 16.3537 18.4748 16.3537 19.0605 16.9395L29.5 27.3789V17.5C29.5 16.6716 30.1716 16 31 16C31.8284 16 32.5 16.6716 32.5 17.5V31C32.5 31.8284 31.8284 32.5 31 32.5H17.5C16.6716 32.5 16 31.8284 16 31C16 30.1716 16.6716 29.5 17.5 29.5H27.3789L16.9395 19.0605C16.3537 18.4748 16.3537 17.5252 16.9395 16.9395Z" fill="white"/>
</svg>
