<svg width="238" height="32" viewBox="0 0 238 32" fill="none" xmlns="http://www.w3.org/2000/svg">
<path d="M20.9936 9.93289C23.4966 9.93289 28.7854 9.93289 32.9841 9.93289C34.3568 6.18391 34.7203 2.35433 34.7203 0.5C34.7203 0.5 21.2358 0.5 16.7141 0.5C5.85393 0.5 0 11.7066 0 19.8093C0 19.8093 2.90683 19.8093 6.58071 19.8093C9.24529 14.4881 14.0899 9.93289 20.9936 9.93289Z" fill="white"/>
<path d="M38.8784 12.1504C38.3132 12.1504 35.4467 12.1504 32.0151 12.1504C28.0182 12.1504 23.2946 12.1504 20.9934 12.1504C15.0587 12.1504 10.6178 15.4963 7.83208 19.8499C5.93458 22.7523 4.80417 26.1385 4.44082 29.2828C4.36008 30.0487 4.2793 30.7744 4.2793 31.5C4.2793 31.5 19.7822 31.5 24.5058 31.5C37.1423 31.5 38.9996 16.4638 38.9996 12.1907C38.9996 12.1504 38.9188 12.1504 38.8784 12.1504Z" fill="white"/>
<path d="M61.3333 24.6842H53.9995V7.31579H60.875C64.2765 7.31579 66.3271 8.96761 66.3271 11.6883C66.3271 13.753 65.145 14.8219 63.601 15.3563V15.4049C65.531 15.7692 67.0267 17.2024 67.0267 19.7045C67.0267 22.9838 64.759 24.6842 61.3333 24.6842ZM55.7606 14.7733H61.2127C63.601 14.7733 64.4936 13.583 64.4936 11.8583C64.4936 10.085 63.4322 8.87045 61.2127 8.87045H55.7606V14.7733ZM55.7606 23.1296H61.4057C64.1318 23.1296 65.1933 21.7206 65.1933 19.7045C65.1933 17.664 63.8905 16.3279 61.84 16.3279H55.7606V23.1296Z" fill="white"/>
<path d="M71.5451 24.6842H69.7841V7.31579H71.5451V24.6842Z" fill="white"/>
<path d="M76.9637 24.6842H75.2026V7.31579H81.9575C85.6244 7.31579 87.6267 9.04049 87.6267 12.2227C87.6267 14.5304 86.2999 16.1093 84.4182 16.5951V16.6437C88.3746 17.4453 86.9995 24.247 87.9403 24.5385V24.6842H86.0586C85.2625 23.9555 86.8306 17.4696 82.2229 17.4696H76.9637V24.6842ZM76.9637 15.915H81.5232C84.2734 15.915 85.8656 14.6761 85.8656 12.247C85.8656 10.0364 84.6112 8.87045 81.6439 8.87045H76.9637V15.915Z" fill="white"/>
<path d="M97.6781 25C92.998 25 89.7653 21.2834 89.7653 16.0121C89.7653 10.7652 92.9739 7 97.7023 7C101.731 7 104.361 9.59919 104.795 12.8543H102.961C102.624 10.9109 101.2 8.55466 97.6781 8.55466C93.5046 8.55466 91.5988 12.1255 91.5988 16.0121C91.5988 19.8988 93.5287 23.4453 97.6781 23.4453C101.321 23.4453 102.841 20.919 103.034 18.5142H104.867C104.457 22.3036 101.779 25 97.6781 25Z" fill="white"/>
<path d="M109.216 24.6842H107.455V7.31579H109.216V14.8219H118.986V7.31579H120.723V24.6842H118.986V16.3765H109.216V24.6842Z" fill="white"/>
<path d="M135.895 25C131.745 25 128.754 22.8381 128.513 18.9271H130.346C130.587 21.6235 132.228 23.4453 135.822 23.4453C139.007 23.4453 140.092 21.915 140.092 19.996C140.116 17.4211 138.331 16.9838 134.785 16.1822C131.962 15.5263 129.236 14.6518 129.236 11.4696C129.236 8.7004 131.432 7 134.978 7C138.717 7 141.081 8.91903 141.347 12.3198H139.513C139.224 9.91498 137.897 8.55466 134.978 8.55466C132.445 8.55466 131.07 9.59919 131.07 11.3968C131.07 13.7287 133.12 14.2146 135.653 14.7733C139.2 15.5506 141.926 16.4251 141.926 19.9474C141.926 22.7652 139.996 25 135.895 25Z" fill="white"/>
<path d="M156.526 24.6842H144.56V7.31579H156.261V8.87045H146.322V14.8462H155.199V16.4008H146.322V23.1296H156.526V24.6842Z" fill="white"/>
<path d="M160.857 24.6842H159.096V7.31579H165.851C169.518 7.31579 171.52 9.04049 171.52 12.2227C171.52 14.5304 170.194 16.1093 168.312 16.5951V16.6437C172.268 17.4453 170.893 24.247 171.834 24.5385V24.6842H169.952C169.156 23.9555 170.724 17.4696 166.117 17.4696H160.857V24.6842ZM160.857 15.915H165.417C168.167 15.915 169.759 14.6761 169.759 12.247C169.759 10.0364 168.505 8.87045 165.538 8.87045H160.857V15.915Z" fill="white"/>
<path d="M180.665 24.6842H178.831L172.535 7.31579H174.441L179.748 22.8866H179.772L185.031 7.31579H186.865L180.665 24.6842Z" fill="white"/>
<path d="M190.754 24.6842H188.993V7.31579H190.754V24.6842Z" fill="white"/>
<path d="M201.456 25C196.776 25 193.543 21.2834 193.543 16.0121C193.543 10.7652 196.751 7 201.48 7C205.509 7 208.138 9.59919 208.572 12.8543H206.739C206.401 10.9109 204.978 8.55466 201.456 8.55466C197.282 8.55466 195.376 12.1255 195.376 16.0121C195.376 19.8988 197.306 23.4453 201.456 23.4453C205.098 23.4453 206.618 20.919 206.811 18.5142H208.645C208.235 22.3036 205.557 25 201.456 25Z" fill="white"/>
<path d="M223.198 24.6842H211.232V7.31579H222.933V8.87045H212.994V14.8462H221.871V16.4008H212.994V23.1296H223.198V24.6842Z" fill="white"/>
<path d="M231.968 25C227.819 25 224.828 22.8381 224.586 18.9271H226.42C226.661 21.6235 228.301 23.4453 231.896 23.4453C235.08 23.4453 236.166 21.915 236.166 19.996C236.19 17.4211 234.405 16.9838 230.859 16.1822C228.036 15.5263 225.31 14.6518 225.31 11.4696C225.31 8.7004 227.505 7 231.052 7C234.791 7 237.155 8.91903 237.421 12.3198H235.587C235.298 9.91498 233.971 8.55466 231.052 8.55466C228.519 8.55466 227.144 9.59919 227.144 11.3968C227.144 13.7287 229.194 14.2146 231.727 14.7733C235.273 15.5506 238 16.4251 238 19.9474C238 22.7652 236.07 25 231.968 25Z" fill="white"/>
</svg>
