<svg width="38" height="38" viewBox="0 0 38 38" fill="none" xmlns="http://www.w3.org/2000/svg">
<path fill-rule="evenodd" clip-rule="evenodd" d="M27.7651 2.1548C25.5842 1.03591 23.7866 0.476461 21.402 0.155077C14.9908 -0.690044 8.32805 1.96435 4.22972 7.01127C0.0115588 12.2129 -1.16282 19.4024 1.2099 25.4611C1.44957 26.0801 1.73717 26.8181 1.84502 27.0799C2.03676 27.568 2.02477 27.6275 1.05412 32.3173C0.514862 34.936 0.0714759 37.2095 0.0714759 37.388C0.0714759 37.6023 0.179327 37.7808 0.371061 37.9118C0.670646 38.1022 0.862381 38.0665 5.59583 36.9595L9.49189 36.0462C10.1601 35.8895 10.8614 35.951 11.4917 36.2215C18.6697 39.2449 26.9742 37.6618 32.4147 32.234C37.4957 27.1751 39.2692 19.8904 37.0763 13.0819C35.5544 8.38013 32.175 4.40449 27.7651 2.1548ZM7.05194 10.0645C9.53251 6.74352 13.487 4.51764 17.5494 4.14864C17.831 4.12483 18.1186 4.10103 18.3523 4.08168C18.586 4.06234 18.7657 4.04746 18.8316 4.04151C19.299 4.0177 21.5399 4.27957 22.2829 4.44622C26.6089 5.44608 30.2398 8.26712 32.265 12.207C35.2489 18.0039 33.9907 25.1695 29.2093 29.6332C26.2614 32.3828 22.2229 33.8588 18.2325 33.6327C16.0395 33.5017 14.218 33.0137 12.1689 32.0019C11.4331 31.6404 10.5933 31.5456 9.79468 31.734L8.15442 32.121C6.20112 32.5852 5.26641 32.7518 5.24245 32.6685C5.23046 32.5852 5.47013 31.252 5.79368 29.7046L6.11503 28.1608C6.28723 27.3335 6.17404 26.4727 5.79368 25.7171C3.19328 20.563 3.67262 14.5877 7.05194 10.0645ZM13.3073 9.90975C13.7627 10.1002 13.8705 10.2906 14.937 12.6832C15.3205 13.5759 15.6441 14.4686 15.6441 14.6948C15.6441 14.9805 15.4763 15.3019 14.985 15.9446C14.1821 16.9921 14.1341 17.373 14.6974 18.2657C15.1527 18.9918 17.3217 21.1225 18.5201 22.0271C20.3895 23.4317 21.2163 23.7769 21.9114 23.4198C22.0552 23.3484 22.4746 22.9913 22.8461 22.6461C23.7688 21.7414 23.8886 21.7414 26.4291 22.4675C28.2266 22.9794 28.5742 23.1103 28.8618 23.4317C29.0894 23.6936 29.1853 23.9197 29.1853 24.253C29.1853 25.2291 27.4237 27.2169 26.1056 27.7287C25.1828 28.0858 23.0857 28.1096 21.8155 27.7882C17.7292 26.7169 12.4684 22.3247 10.3953 18.2538C9.73623 16.9445 9.47259 15.897 9.47259 14.5044C9.47259 13.3259 9.49656 13.2069 9.86804 12.457C10.1077 11.9571 10.5631 11.3619 11.0904 10.8263C12.1689 9.7193 12.5044 9.57646 13.3073 9.90975Z" fill="white"/>
</svg>
